<svg width="42" height="41" viewBox="0 0 42 41" fill="none" xmlns="http://www.w3.org/2000/svg">
<rect y="0.692078" width="41.3954" height="39.3761" rx="11.1061" fill="#D31752" fill-opacity="0.2"/>
<g clip-path="url(#clip0_2_332)">
<path d="M29.183 11.8949C26.9165 9.62833 23.903 8.38013 20.6977 8.38013C17.4924 8.38013 14.4789 9.62833 12.2124 11.8949C9.9459 14.1613 8.69769 17.1748 8.69769 20.3801C8.69769 23.5855 9.9459 26.5989 12.2124 28.8654C14.4789 31.1319 17.4924 32.3801 20.6977 32.3801C23.903 32.3801 26.9165 31.1319 29.183 28.8654C31.4495 26.5989 32.6977 23.5855 32.6977 20.3801C32.6977 17.1748 31.4495 14.1613 29.183 11.8949ZM20.6977 31.6142C14.5032 31.6142 9.46365 26.5746 9.46365 20.3801C9.46365 14.1856 14.5032 9.14608 20.6977 9.14608C26.8922 9.14608 31.9317 14.1856 31.9317 20.3801C31.9317 26.5746 26.8922 31.6142 20.6977 31.6142Z" fill="#D31752"/>
<path d="M23.9381 28.8167C24.107 28.863 24.2859 28.7888 24.3725 28.6363L25.2175 27.1459L26.9172 26.9318C27.0907 26.91 27.2274 26.7733 27.2493 26.5997L27.4634 24.9L28.9538 24.055C29.1379 23.9507 29.2024 23.717 29.0981 23.533C28.9938 23.3489 28.76 23.2844 28.576 23.3887L26.9185 24.3284C26.8134 24.388 26.7425 24.4938 26.7274 24.6137L26.5264 26.209L24.9311 26.41C24.8112 26.4251 24.7055 26.4959 24.6458 26.601L23.8531 27.9992L22.3033 27.5742C22.187 27.5422 22.0623 27.567 21.9671 27.6411L20.6977 28.6271L19.4282 27.641C19.3329 27.567 19.2083 27.5422 19.092 27.5741L17.5422 27.9992L16.7494 26.6009C16.6898 26.4958 16.5841 26.425 16.4641 26.4099L14.8689 26.2089L14.6679 24.6136C14.6528 24.4937 14.5819 24.3879 14.4768 24.3283L12.8193 23.3886C12.6353 23.2843 12.4016 23.3488 12.2972 23.5328C12.1929 23.7169 12.2575 23.9506 12.4415 24.0549L13.9319 24.8999L14.146 26.5996C14.1679 26.7732 14.3046 26.9099 14.4781 26.9317L16.1778 27.1458L17.0228 28.6362C17.1093 28.7887 17.2884 28.8631 17.4573 28.8167L19.1097 28.3635L20.4627 29.4145C20.5319 29.4682 20.6148 29.495 20.6977 29.495C20.7806 29.495 20.8635 29.4682 20.9326 29.4145L22.2857 28.3635L23.9381 28.8167Z" fill="#D31752"/>
<path d="M26.7275 16.1466C26.7426 16.2665 26.8135 16.3723 26.9186 16.4319L28.5761 17.3716C28.6357 17.4055 28.7006 17.4215 28.7646 17.4215C28.898 17.4215 29.0276 17.3517 29.0981 17.2274C29.2024 17.0434 29.1378 16.8096 28.9538 16.7053L27.4634 15.8603L27.2493 14.1606C27.2274 13.987 27.0908 13.8503 26.9172 13.8285L25.2175 13.6144L24.3725 12.124C24.286 11.9715 24.107 11.8971 23.938 11.9435L22.2856 12.3967L20.9326 11.3457C20.7943 11.2383 20.601 11.2383 20.4627 11.3457L19.1097 12.3967L17.4573 11.9435C17.2884 11.8971 17.1094 11.9714 17.0229 12.124L16.1779 13.6144L14.4782 13.8284C14.3046 13.8503 14.1679 13.987 14.146 14.1606L13.932 15.8603L12.4415 16.7053C12.2575 16.8096 12.193 17.0433 12.2973 17.2273C12.4016 17.4113 12.6353 17.4759 12.8194 17.3716L14.4769 16.4319C14.582 16.3723 14.6529 16.2665 14.668 16.1466L14.869 14.5512L16.4642 14.3503C16.5842 14.3352 16.6899 14.2644 16.7495 14.1592L17.5422 12.761L19.0921 13.1861C19.2083 13.2179 19.333 13.1932 19.4283 13.1192L20.6977 12.1332L21.9671 13.1193C22.0625 13.1932 22.1871 13.218 22.3033 13.1862L23.8532 12.7611L24.6459 14.1593C24.7056 14.2645 24.8113 14.3353 24.9312 14.3504L26.5265 14.5513L26.7275 16.1466Z" fill="#D31752"/>
<path d="M20.0658 23.6243C19.9162 23.4747 19.6738 23.4747 19.5242 23.6243L18.7901 24.3584L18.3442 23.9124C18.1946 23.7628 17.9521 23.7628 17.8025 23.9124C17.653 24.062 17.653 24.3045 17.8025 24.454L18.2053 24.8568C18.0361 24.9425 17.848 24.9881 17.6528 24.9881C17.3759 24.9881 17.113 24.8969 16.8984 24.7286V24.7088C16.8984 24.4972 16.727 24.3258 16.5154 24.3258C16.3039 24.3258 16.1324 24.4972 16.1324 24.7088V24.8999C16.1324 25.0015 16.1728 25.0989 16.2446 25.1707C16.6207 25.5469 17.1208 25.754 17.6528 25.754C18.0547 25.754 18.4383 25.6356 18.7642 25.4156L19.2362 25.8876C19.311 25.9624 19.409 25.9997 19.507 25.9997C19.605 25.9997 19.703 25.9624 19.7778 25.8876C19.9274 25.738 19.9274 25.4955 19.7778 25.346L19.3319 24.9L20.066 24.1658C20.2154 24.0163 20.2154 23.7738 20.0658 23.6243Z" fill="#D31752"/>
<path d="M21.6177 25.8876C21.6925 25.9624 21.7906 25.9998 21.8885 25.9998C21.9865 25.9998 22.0846 25.9624 22.1594 25.8876L22.6314 25.4156C22.9572 25.6357 23.3409 25.7541 23.7427 25.7541C24.2747 25.7541 24.7748 25.5469 25.151 25.1708C25.2228 25.099 25.2631 25.0016 25.2631 24.9V24.7088C25.2631 24.4973 25.0917 24.3258 24.8801 24.3258C24.6686 24.3258 24.4971 24.4973 24.4971 24.7088V24.7287C24.2826 24.8969 24.0196 24.9882 23.7427 24.9882C23.5475 24.9882 23.3594 24.9425 23.1902 24.8568L23.593 24.454C23.7426 24.3045 23.7426 24.062 23.593 23.9125C23.4434 23.7629 23.2009 23.7629 23.0514 23.9125L22.6054 24.3584L21.2395 22.9924L21.4608 22.7711C22.4061 21.8258 23.605 21.2385 24.9279 21.0724C25.1377 21.046 25.2865 20.8546 25.2602 20.6447C25.2338 20.4349 25.0423 20.2858 24.8325 20.3125C23.3391 20.4999 21.9859 21.1628 20.9192 22.2295L20.6977 22.4508L20.4763 22.2294C19.4096 21.1627 18.0564 20.4998 16.5629 20.3124C16.3539 20.2858 16.1616 20.4347 16.1353 20.6446C16.1089 20.8545 16.2577 21.046 16.4676 21.0723C17.7905 21.2384 18.9894 21.8257 19.9346 22.771L22.0636 24.9L21.6177 25.346C21.4681 25.4955 21.4681 25.738 21.6177 25.8876Z" fill="#D31752"/>
<path d="M20.6977 14.1477C20.4861 14.1477 20.3147 14.3191 20.3147 14.5307V14.7412C20.1233 14.6786 19.9224 14.645 19.7191 14.645C19.4873 14.645 19.2592 14.6869 19.0409 14.7695C18.0515 15.1439 17.5512 16.2534 17.9255 17.2428C17.9643 17.3454 18.0453 17.4264 18.1478 17.4653C18.2504 17.5043 18.3647 17.4974 18.4618 17.4462L19.4836 16.9093L19.2255 17.279C19.1045 17.4524 19.147 17.6912 19.3204 17.8122C19.4939 17.9332 19.7326 17.8907 19.8536 17.7173L20.3146 17.0566V19.3843C20.0901 19.4295 19.8748 19.5139 19.6788 19.6357C19.4991 19.7473 19.4439 19.9834 19.5555 20.163C19.6281 20.2798 19.7531 20.344 19.8812 20.344C19.9502 20.344 20.02 20.3254 20.0829 20.2863C20.2669 20.172 20.4796 20.1116 20.6976 20.1116C20.9156 20.1116 21.1282 20.172 21.3122 20.2863C21.492 20.3978 21.7281 20.3427 21.8396 20.163C21.9512 19.9833 21.896 19.7472 21.7163 19.6356C21.5203 19.5139 21.305 19.4296 21.0806 19.3843V17.0566L21.5416 17.7173C21.616 17.8241 21.735 17.8812 21.856 17.8812C21.9316 17.8812 22.0081 17.8588 22.0748 17.8123C22.2482 17.6912 22.2907 17.4525 22.1697 17.2791L21.9116 16.9093L22.9334 17.4463C22.9889 17.4755 23.0502 17.4903 23.1115 17.4903C23.1574 17.4903 23.2035 17.482 23.2474 17.4653C23.35 17.4264 23.4309 17.3454 23.4697 17.2428C23.8441 16.2534 23.3437 15.1439 22.3543 14.7695C22.136 14.687 21.9078 14.645 21.6761 14.645C21.4728 14.645 21.2719 14.6786 21.0805 14.7412V14.5307C21.0807 14.3191 20.9093 14.1477 20.6977 14.1477ZM19.3119 15.4859C19.4433 15.4362 19.5803 15.411 19.7191 15.411C19.9292 15.411 20.1354 15.4698 20.3147 15.5779V15.6071L18.5679 16.5252C18.5837 16.0747 18.8646 15.6552 19.3119 15.4859ZM22.0834 15.4859C22.5308 15.6552 22.8117 16.0746 22.8275 16.5252L21.0807 15.6071V15.5777C21.3785 15.3986 21.7531 15.361 22.0834 15.4859Z" fill="#D31752"/>
<path d="M20.6977 9.65671C14.7848 9.65671 9.97427 14.4672 9.97427 20.3801C9.97427 23.106 10.9981 25.7039 12.8571 27.6955C14.7068 29.6769 17.2093 30.8769 19.9037 31.0742C19.9133 31.0749 19.9227 31.0753 19.9321 31.0753C20.1309 31.0753 20.299 30.9217 20.3137 30.7202C20.3292 30.5093 20.1706 30.3258 19.9597 30.3103C14.7899 29.9318 10.7402 25.5699 10.7402 20.3801C10.7402 14.8896 15.2071 10.4227 20.6977 10.4227C26.1882 10.4227 30.6551 14.8896 30.6551 20.3801C30.6551 22.7666 29.7978 25.075 28.2409 26.88C28.1028 27.0402 28.1207 27.2821 28.2808 27.4202C28.4409 27.5583 28.6827 27.5405 28.821 27.3803C30.4976 25.4362 31.4211 22.9502 31.4211 20.3801C31.4211 14.4672 26.6106 9.65671 20.6977 9.65671Z" fill="#D31752"/>
<path d="M27.1976 27.9234C25.5688 29.3282 23.5763 30.1536 21.4357 30.3104C21.2247 30.3258 21.0663 30.5093 21.0816 30.7203C21.0964 30.9218 21.2644 31.0754 21.4632 31.0754C21.4726 31.0754 21.4821 31.075 21.4916 31.0743C23.7975 30.9054 25.9436 30.0165 27.6979 28.5035C27.8581 28.3653 27.8759 28.1235 27.7377 27.9633C27.5996 27.8031 27.3577 27.7853 27.1976 27.9234Z" fill="#D31752"/>
</g>
<defs>
<clipPath id="clip0_2_332">
<rect width="24" height="24" fill="white" transform="translate(8.69769 8.38013)"/>
</clipPath>
</defs>
</svg>
