<svg width="42" height="41" viewBox="0 0 42 41" fill="none" xmlns="http://www.w3.org/2000/svg">
<rect y="0.692078" width="41.3954" height="39.3761" rx="11.1061" fill="#F5CE00" fill-opacity="0.1"/>
<path d="M19.3259 21.1641C20.7925 21.1641 24.2405 19.5028 24.2405 15.522C24.2405 14.9667 24.2262 14.4302 24.1775 13.9233C24.0976 12.9261 23.8806 12.0424 23.3405 11.365C22.6475 10.4431 21.4348 9.88013 19.3259 9.88013C17.2178 9.88013 16.0052 10.4428 15.3121 11.3642C14.7713 12.0418 14.5542 12.926 14.4744 13.9238C14.4258 14.4306 14.4115 14.9669 14.4115 15.5221C14.4115 19.5028 17.8594 21.1641 19.3259 21.1641ZM20.9302 11.9471C20.7871 12.2876 20.7153 12.4578 20.5721 12.7984C19.6476 12.5525 19.0043 12.5525 18.0798 12.7984C17.9366 12.4578 17.865 12.2876 17.7217 11.9471C18.8779 11.6176 19.774 11.6176 20.9302 11.9471ZM15.1426 14.659C15.1992 14.7755 15.4398 15.2237 15.8121 15.2657C16.2401 15.314 16.9506 13.8389 19.326 13.8354C21.7014 13.839 22.4119 15.314 22.8399 15.2657C23.2123 15.2237 23.4528 14.7755 23.5095 14.659C23.5209 14.9446 23.5252 15.2338 23.5252 15.5221C23.5252 17.4679 22.6125 18.6735 21.8467 19.3423C20.8819 20.1849 19.8107 20.4907 19.3261 20.4907C18.8414 20.4907 17.7702 20.1849 16.8054 19.3423C16.0396 18.6735 15.1269 17.4679 15.1269 15.5221C15.1268 15.2338 15.1311 14.9446 15.1426 14.659Z" fill="#F5CE00"/>
<path d="M23.6887 21.9975C23.847 21.8484 24.0152 21.7118 24.1908 21.5866C23.5085 21.2366 22.8468 20.9038 22.4186 20.6884L22.3985 20.6783C22.278 20.6177 22.1308 20.6298 22.0235 20.7093C21.4712 21.1174 20.8663 21.3924 20.2257 21.5265C20.1126 21.5502 20.0196 21.626 19.9785 21.728L19.326 23.3468L18.6735 21.728C18.6325 21.626 18.5395 21.5503 18.4263 21.5265C17.7857 21.3923 17.1808 21.1173 16.6286 20.7093C16.5211 20.6298 16.374 20.6177 16.2535 20.6783C15.2117 21.2023 12.7126 22.4694 12.0087 22.916C10.816 23.6723 10.2945 26.4094 10.202 26.9504C10.1929 27.0041 10.1982 27.059 10.2174 27.1102C10.2602 27.2237 11.3547 29.8882 19.3261 29.8882C19.6867 29.8882 20.0329 29.8826 20.3659 29.8721C20.3951 29.5252 20.55 29.1859 20.8313 28.921L22.7469 27.118C21.8898 25.42 22.2375 23.3635 23.6887 21.9975Z" fill="#F5CE00"/>
<path d="M29.9919 22.4426C29.2144 21.7107 28.1791 21.3077 27.0767 21.3077C25.9743 21.3077 24.939 21.7107 24.1615 22.4426C22.8538 23.6734 22.5779 25.5887 23.4904 27.1001L23.5705 27.2328L21.304 29.3662C20.9367 29.7119 20.9368 30.2746 21.3041 30.6204C21.4821 30.7879 21.7187 30.8801 21.9703 30.8801C22.2221 30.8801 22.4586 30.7879 22.6365 30.6204L24.903 28.487L25.0439 28.5623C25.6594 28.8912 26.3629 29.0651 27.0781 29.0651C28.1801 29.0651 29.2148 28.6622 29.9919 27.9307C30.7695 27.1989 31.1977 26.2243 31.1977 25.1866C31.1977 24.1489 30.7695 23.1744 29.9919 22.4426ZM28.9818 26.9799C28.4738 27.4582 27.7972 27.7216 27.0767 27.7216C26.3563 27.7216 25.6797 27.4582 25.1715 26.9799C24.1211 25.9911 24.1211 24.3822 25.1715 23.3934C25.6797 22.915 26.3563 22.6517 27.0767 22.6517C27.7972 22.6517 28.4737 22.9151 28.9818 23.3934C29.4899 23.8717 29.7698 24.5085 29.7698 25.1866C29.7698 25.8647 29.4899 26.5016 28.9818 26.9799Z" fill="#F5CE00"/>
</svg>
