<svg width="41" height="40" viewBox="0 0 41 40" fill="none" xmlns="http://www.w3.org/2000/svg">
<rect x="0.5" width="40" height="40" rx="8" fill="#D31752"/>
<path d="M31.0234 29.5719L10.9375 29.5625L10.9469 9.47187C10.9469 8.94219 10.5109 8.52031 9.98594 8.51562C9.45625 8.51562 9.025 8.94219 9.025 9.47187L9.01562 30.5187C9.01562 30.7719 9.11875 31.0156 9.29688 31.1937C9.46562 31.3625 9.68594 31.4609 9.925 31.4703C9.94375 31.4703 9.95781 31.4703 9.97656 31.4703L31.0234 31.4797C31.5531 31.4797 31.9844 31.0531 31.9844 30.5234C31.9844 29.9984 31.5531 29.5719 31.0234 29.5719Z" fill="white"/>
<path d="M14.0594 26.8391L19.3422 22.4328L26.0734 22.0672C26.4297 22.0484 26.7437 21.8328 26.8937 21.5141L29.3031 16.3344L29.8187 17.4641C30.1984 18.2141 30.8969 18.0219 31.0937 17.9375C31.5812 17.7312 31.7875 17.15 31.5672 16.6719L30.0766 13.4187C29.7531 12.7484 29.0406 12.8094 28.7922 12.95L25.5906 14.4594C25.1125 14.6844 24.9062 15.2562 25.1312 15.7344C25.3562 16.2125 25.9328 16.4141 26.4109 16.1891L27.4891 15.6781L25.3937 20.1875L18.9156 20.5391C18.7094 20.5484 18.5125 20.6281 18.3531 20.7594L12.8266 25.3719C12.4187 25.7094 12.3719 26.3094 12.7047 26.7219C13.0328 27.1156 13.675 27.1812 14.0594 26.8391Z" fill="white"/>
</svg>
