<svg width="71" height="73" viewBox="0 0 71 73" fill="none" xmlns="http://www.w3.org/2000/svg">
<g filter="url(#filter0_d_5_219)">
<rect x="16" y="12.5" width="39" height="40" rx="8" fill="#FF9C29" shape-rendering="crispEdges"/>
<path d="M46.0234 42.0719L25.9375 42.0625L25.9469 21.9719C25.9469 21.4422 25.5109 21.0203 24.9859 21.0156C24.4563 21.0156 24.025 21.4422 24.025 21.9719L24.0156 43.0187C24.0156 43.2719 24.1188 43.5156 24.2969 43.6937C24.4656 43.8625 24.6859 43.9609 24.925 43.9703C24.9437 43.9703 24.9578 43.9703 24.9766 43.9703L46.0234 43.9797C46.5531 43.9797 46.9844 43.5531 46.9844 43.0234C46.9844 42.4984 46.5531 42.0719 46.0234 42.0719Z" fill="white"/>
<path d="M45.0801 25.5811L39.7973 29.9874L33.0661 30.353C32.7098 30.3717 32.3958 30.5874 32.2458 30.9061L29.8364 36.0858L29.3208 34.9561C28.9411 34.2061 28.2426 34.3983 28.0457 34.4827C27.5583 34.6889 27.352 35.2702 27.5723 35.7483L29.0629 39.0014C29.3864 39.6717 30.0989 39.6108 30.3473 39.4702L33.5489 37.9608C34.027 37.7358 34.2333 37.1639 34.0083 36.6858C33.7833 36.2077 33.2067 36.0061 32.7286 36.2311L31.6504 36.742L33.7458 32.2327L40.2239 31.8811C40.4301 31.8717 40.627 31.792 40.7864 31.6608L46.3129 27.0483C46.7208 26.7108 46.7676 26.1108 46.4348 25.6983C46.1067 25.3045 45.4645 25.2389 45.0801 25.5811Z" fill="white"/>
</g>
<defs>
<filter id="filter0_d_5_219" x="0" y="0.5" width="71" height="72" filterUnits="userSpaceOnUse" color-interpolation-filters="sRGB">
<feFlood flood-opacity="0" result="BackgroundImageFix"/>
<feColorMatrix in="SourceAlpha" type="matrix" values="0 0 0 0 0 0 0 0 0 0 0 0 0 0 0 0 0 0 127 0" result="hardAlpha"/>
<feOffset dy="4"/>
<feGaussianBlur stdDeviation="8"/>
<feComposite in2="hardAlpha" operator="out"/>
<feColorMatrix type="matrix" values="0 0 0 0 1 0 0 0 0 0.61314 0 0 0 0 0.159001 0 0 0 0.2 0"/>
<feBlend mode="normal" in2="BackgroundImageFix" result="effect1_dropShadow_5_219"/>
<feBlend mode="normal" in="SourceGraphic" in2="effect1_dropShadow_5_219" result="shape"/>
</filter>
</defs>
</svg>
