<svg width="42" height="41" viewBox="0 0 42 41" fill="none" xmlns="http://www.w3.org/2000/svg">
<rect y="0.692078" width="41.3954" height="39.3761" rx="11.1061" fill="#DA1196" fill-opacity="0.2"/>
<g clip-path="url(#clip0_2_353)">
<path d="M13.4107 28.8451C13.4114 29.6368 13.9199 30.3051 14.6257 30.3385C15.6082 30.3843 16.5929 30.3568 17.5769 30.3568C18.2924 30.3568 18.9164 29.636 18.8969 28.7285C18.8752 27.711 18.9104 26.691 18.9187 25.6726L18.9524 21.516C18.9547 21.2618 18.9869 21.2143 19.2037 21.1493C19.6956 20.9963 20.2135 20.9771 20.7134 21.0935C21.6359 21.3118 22.3102 22.1018 22.4092 23.1435C22.4587 23.6601 22.4617 24.1843 22.4677 24.7051C22.4864 26.0718 22.4962 27.4385 22.5082 28.806C22.5157 29.7118 23.1052 30.3701 23.9204 30.3743C24.7987 30.3793 25.6769 30.381 26.5552 30.3801C27.3847 30.3785 27.9764 29.7318 27.9787 28.811C27.9839 26.0018 27.9839 23.1926 27.9862 20.3835C27.9862 20.3401 27.9862 20.296 27.9824 20.2535C27.9599 19.9576 27.8557 19.7051 27.6202 19.5551C27.4578 19.447 27.2822 19.3653 27.0989 19.3126C26.39 19.1225 25.6546 19.0877 24.9337 19.2101C24.3764 19.3043 23.8267 19.4543 23.2739 19.5785C22.5464 19.7418 21.8144 19.8118 21.0734 19.7268C20.1224 19.6193 19.2959 19.1718 18.5219 18.5768C18.1553 18.292 17.7817 18.0186 17.4014 17.7568C16.9364 17.4401 16.4159 17.336 15.8789 17.3035C15.3014 17.2676 14.7269 17.251 14.1592 17.396C13.7167 17.5093 13.4849 17.7951 13.4347 18.2935C13.4242 18.3983 13.4189 18.5038 13.4189 18.6093M18.9217 13.456C18.9232 13.0538 18.8534 12.6552 18.7163 12.283C18.5792 11.9108 18.3775 11.5722 18.1226 11.2867C17.8678 11.0011 17.5648 10.7741 17.2309 10.6186C16.8971 10.4631 16.539 10.3822 16.1771 10.3806C15.8151 10.3789 15.4564 10.4564 15.1214 10.6087C14.7864 10.7611 14.4817 10.9852 14.2247 11.2684C13.9677 11.5516 13.7634 11.8882 13.6234 12.2591C13.4835 12.6301 13.4107 13.028 13.4092 13.4301C13.4062 14.2424 13.6937 15.0226 14.2085 15.5993C14.7233 16.176 15.4232 16.5018 16.1542 16.5051C16.8852 16.5084 17.5874 16.189 18.1064 15.617C18.6255 15.045 18.9187 14.2682 18.9217 13.456ZM25.1729 11.9476C24.4428 11.9439 23.7413 12.2623 23.2223 12.8329C22.7034 13.4036 22.4096 14.1798 22.4054 14.991C22.403 15.3944 22.4723 15.7944 22.6095 16.168C22.7467 16.5415 22.9491 16.8813 23.2049 17.1676C23.4607 17.4539 23.765 17.6812 24.1001 17.8364C24.4353 17.9916 24.7948 18.0716 25.1579 18.0718C25.8881 18.0722 26.5887 17.751 27.106 17.1785C27.6234 16.606 27.9154 15.8289 27.9179 15.0176C27.9195 14.2063 27.6314 13.4273 27.1168 12.8516C26.6022 12.276 25.9032 11.9506 25.1729 11.9468V11.9476Z" fill="#DA1196"/>
</g>
<defs>
<clipPath id="clip0_2_353">
<rect width="18" height="20" fill="white" transform="translate(11.6977 10.3801)"/>
</clipPath>
</defs>
</svg>
