<svg width="42" height="41" viewBox="0 0 42 41" fill="none" xmlns="http://www.w3.org/2000/svg">
<rect y="0.692078" width="41.3954" height="39.3761" rx="11.1061" fill="#39DA11" fill-opacity="0.2"/>
<path d="M18.1985 18.7134C20.0395 18.7134 21.5318 17.2211 21.5318 15.3801C21.5318 13.5392 20.0395 12.0468 18.1985 12.0468C16.3576 12.0468 14.8652 13.5392 14.8652 15.3801C14.8652 17.2211 16.3576 18.7134 18.1985 18.7134Z" fill="#39DA11"/>
<path d="M18.1985 27.881C21.4202 27.881 24.0318 26.3886 24.0318 24.5476C24.0318 22.7067 21.4202 21.2143 18.1985 21.2143C14.9768 21.2143 12.3652 22.7067 12.3652 24.5476C12.3652 26.3886 14.9768 27.881 18.1985 27.881Z" fill="#39DA11"/>
<path d="M28.1974 24.5472C28.1974 25.9279 26.5011 27.0471 24.43 27.0471C25.0402 26.3802 25.4598 25.543 25.4598 24.5483C25.4598 23.5525 25.0392 22.7145 24.4279 22.0472C26.4989 22.0472 28.1974 23.1665 28.1974 24.5472Z" fill="#39DA11"/>
<path d="M25.6974 15.3807C25.6974 16.7615 24.5781 17.8807 23.1974 17.8807C22.8963 17.8807 22.6077 17.8275 22.3404 17.73C22.7346 17.0366 22.9598 16.2345 22.9598 15.3798C22.9598 14.5258 22.7349 13.7242 22.3412 13.0312C22.6083 12.9338 22.8966 12.8807 23.1974 12.8807C24.5781 12.8807 25.6974 14 25.6974 15.3807Z" fill="#39DA11"/>
</svg>
