<svg width="73" height="72" viewBox="0 0 73 72" fill="none" xmlns="http://www.w3.org/2000/svg">
<g filter="url(#filter0_d_5_209)">
<rect x="16.1327" y="12" width="40" height="40" rx="8" fill="#00DEA3" shape-rendering="crispEdges"/>
<g clip-path="url(#clip0_5_209)">
<rect x="24.1327" y="20" width="24" height="24" rx="8" fill="white"/>
<path d="M44.618 23.5147C42.3514 21.2482 39.338 20 36.1327 20C32.9274 20 29.9139 21.2482 27.6474 23.5147C25.3809 25.7812 24.1327 28.7947 24.1327 32C24.1327 35.2053 25.3809 38.2188 27.6474 40.4853C29.9139 42.7518 32.9274 44 36.1327 44C39.338 44 42.3514 42.7518 44.618 40.4853C46.8845 38.2188 48.1327 35.2053 48.1327 32C48.1327 28.7947 46.8845 25.7812 44.618 23.5147ZM36.1327 43.234C29.9382 43.234 24.8986 38.1945 24.8986 32C24.8986 25.8055 29.9382 20.766 36.1327 20.766C42.3272 20.766 47.3667 25.8055 47.3667 32C47.3667 38.1945 42.3272 43.234 36.1327 43.234Z" fill="#00DEA3"/>
<path d="M39.373 40.4366C39.542 40.4828 39.7209 40.4087 39.8075 40.2562L40.6525 38.7658L42.3522 38.5517C42.5257 38.5298 42.6624 38.3931 42.6843 38.2196L42.8984 36.5199L44.3888 35.6749C44.5729 35.5705 44.6374 35.3368 44.5331 35.1528C44.4288 34.9688 44.195 34.9043 44.011 35.0085L42.3535 35.9483C42.2484 36.0079 42.1775 36.1137 42.1624 36.2336L41.9614 37.8289L40.3661 38.0298C40.2462 38.0449 40.1405 38.1158 40.0808 38.2209L39.2881 39.6191L37.7383 39.194C37.622 39.1621 37.4973 39.1869 37.4021 39.2609L36.1327 40.247L34.8632 39.2609C34.7679 39.1869 34.6433 39.1621 34.527 39.194L32.9772 39.619L32.1844 38.2208C32.1248 38.1157 32.0191 38.0448 31.8991 38.0297L30.3039 37.8288L30.1029 36.2335C30.0878 36.1136 30.0169 36.0078 29.9118 35.9482L28.2543 35.0084C28.0703 34.9042 27.8366 34.9687 27.7322 35.1527C27.6279 35.3367 27.6925 35.5704 27.8765 35.6748L29.3669 36.5198L29.581 38.2195C29.6029 38.393 29.7396 38.5297 29.9131 38.5516L31.6128 38.7657L32.4578 40.2561C32.5443 40.4085 32.7234 40.483 32.8923 40.4366L34.5447 39.9834L35.8977 41.0344C35.9669 41.088 36.0498 41.1149 36.1327 41.1149C36.2156 41.1149 36.2985 41.0881 36.3676 41.0344L37.7207 39.9834L39.373 40.4366Z" fill="#00DEA3"/>
<path d="M42.1625 27.7665C42.1776 27.8864 42.2485 27.9922 42.3536 28.0518L44.0111 28.9916C44.0707 29.0254 44.1356 29.0414 44.1996 29.0414C44.333 29.0414 44.4626 28.9716 44.5331 28.8473C44.6374 28.6633 44.5728 28.4295 44.3889 28.3252L42.8984 27.4802L42.6843 25.7805C42.6624 25.6069 42.5258 25.4702 42.3522 25.4484L40.6525 25.2343L39.8075 23.7439C39.7211 23.5914 39.542 23.517 39.3731 23.5634L37.7206 24.0166L36.3676 22.9656C36.2294 22.8582 36.036 22.8582 35.8978 22.9656L34.5447 24.0166L32.8923 23.5634C32.7234 23.517 32.5444 23.5913 32.4579 23.7439L31.6129 25.2343L29.9132 25.4483C29.7397 25.4702 29.603 25.6069 29.5811 25.7805L29.367 27.4802L27.8765 28.3252C27.6925 28.4295 27.628 28.6632 27.7323 28.8472C27.8366 29.0312 28.0703 29.0958 28.2544 28.9915L29.9119 28.0518C30.017 27.9922 30.0879 27.8864 30.103 27.7665L30.304 26.1711L31.8993 25.9702C32.0192 25.9551 32.1249 25.8843 32.1845 25.7791L32.9773 24.3809L34.5271 24.806C34.6433 24.8378 34.768 24.8131 34.8633 24.7391L36.1327 23.7531L37.4021 24.7392C37.4975 24.8132 37.6221 24.8379 37.7383 24.8061L39.2882 24.381L40.081 25.7792C40.1406 25.8844 40.2463 25.9552 40.3662 25.9703L41.9615 26.1712L42.1625 27.7665Z" fill="#00DEA3"/>
<path d="M35.5008 35.2441C35.3512 35.0946 35.1088 35.0946 34.9592 35.2441L34.2251 35.9782L33.7792 35.5323C33.6295 35.3827 33.3871 35.3827 33.2375 35.5323C33.088 35.6819 33.088 35.9244 33.2375 36.0739L33.6403 36.4767C33.4711 36.5623 33.283 36.608 33.0878 36.608C32.8108 36.608 32.548 36.5168 32.3334 36.3485V36.3286C32.3334 36.1171 32.162 35.9456 31.9504 35.9456C31.7388 35.9456 31.5674 36.1171 31.5674 36.3286V36.5198C31.5674 36.6214 31.6078 36.7188 31.6796 36.7906C32.0557 37.1667 32.5558 37.3739 33.0878 37.3739C33.4897 37.3739 33.8733 37.2555 34.1992 37.0355L34.6711 37.5074C34.7459 37.5822 34.8439 37.6196 34.942 37.6196C35.04 37.6196 35.138 37.5822 35.2128 37.5074C35.3624 37.3579 35.3624 37.1154 35.2128 36.9659L34.7668 36.5199L35.501 35.7857C35.6504 35.6362 35.6504 35.3937 35.5008 35.2441Z" fill="#00DEA3"/>
<path d="M37.0527 37.5075C37.1275 37.5823 37.2256 37.6197 37.3235 37.6197C37.4215 37.6197 37.5196 37.5823 37.5944 37.5075L38.0664 37.0355C38.3922 37.2556 38.7759 37.374 39.1777 37.374C39.7097 37.374 40.2098 37.1668 40.586 36.7907C40.6578 36.7189 40.6981 36.6215 40.6981 36.5199V36.3287C40.6981 36.1172 40.5267 35.9457 40.3151 35.9457C40.1036 35.9457 39.9321 36.1172 39.9321 36.3287V36.3486C39.7176 36.5168 39.4546 36.6081 39.1777 36.6081C38.9825 36.6081 38.7944 36.5624 38.6252 36.4767L39.028 36.0739C39.1776 35.9244 39.1776 35.6819 39.028 35.5324C38.8784 35.3828 38.6359 35.3828 38.4864 35.5324L38.0404 35.9783L36.6745 34.6123L36.8958 34.391C37.8411 33.4457 39.04 32.8584 40.3629 32.6923C40.5727 32.6659 40.7215 32.4745 40.6952 32.2646C40.6688 32.0548 40.4773 31.9057 40.2675 31.9324C38.7741 32.1198 37.4209 32.7827 36.3541 33.8494L36.1327 34.0707L35.9113 33.8493C34.8445 32.7826 33.4914 32.1197 31.9979 31.9323C31.7889 31.9057 31.5966 32.0546 31.5703 32.2645C31.5439 32.4744 31.6927 32.6659 31.9026 32.6922C33.2255 32.8583 34.4244 33.4456 35.3696 34.3909L37.4986 36.5199L37.0527 36.9659C36.9031 37.1154 36.9031 37.3579 37.0527 37.5075Z" fill="#00DEA3"/>
<path d="M36.1327 25.7676C35.9211 25.7676 35.7497 25.9391 35.7497 26.1506V26.3611C35.5583 26.2985 35.3574 26.2649 35.154 26.2649C34.9223 26.2649 34.6942 26.3068 34.4759 26.3894C33.4865 26.7638 32.9861 27.8733 33.3605 28.8627C33.3993 28.9653 33.4803 29.0463 33.5828 29.0852C33.6854 29.1242 33.7997 29.1173 33.8968 29.0661L34.9185 28.5292L34.6605 28.8989C34.5395 29.0723 34.582 29.3111 34.7554 29.4321C34.9289 29.5531 35.1676 29.5106 35.2886 29.3372L35.7496 28.6765V31.0042C35.5251 31.0494 35.3097 31.1338 35.1138 31.2556C34.9341 31.3672 34.8789 31.6033 34.9905 31.7829C35.0631 31.8997 35.1881 31.9639 35.3162 31.9639C35.3852 31.9639 35.455 31.9453 35.5179 31.9062C35.7019 31.7919 35.9145 31.7315 36.1326 31.7315C36.3506 31.7315 36.5632 31.7919 36.7472 31.9062C36.9269 32.0177 37.1631 31.9626 37.2746 31.7829C37.3862 31.6032 37.331 31.3671 37.1513 31.2555C36.9553 31.1338 36.74 31.0495 36.5156 31.0042V28.6765L36.9766 29.3372C37.051 29.444 37.17 29.5011 37.291 29.5011C37.3666 29.5011 37.443 29.4787 37.5098 29.4322C37.6832 29.3111 37.7257 29.0724 37.6047 28.899L37.3466 28.5292L38.3684 29.0662C38.4239 29.0954 38.4851 29.1102 38.5465 29.1102C38.5924 29.1102 38.6385 29.1019 38.6824 29.0852C38.7849 29.0463 38.8659 28.9653 38.9047 28.8627C39.279 27.8733 38.7787 26.7638 37.7892 26.3894C37.571 26.3069 37.3428 26.2649 37.1111 26.2649C36.9078 26.2649 36.7068 26.2985 36.5155 26.3611V26.1506C36.5157 25.9391 36.3442 25.7676 36.1327 25.7676ZM34.7469 27.1058C34.8783 27.0561 35.0153 27.0309 35.154 27.0309C35.3642 27.0309 35.5704 27.0897 35.7497 27.1978V27.227L34.0029 28.1451C34.0187 27.6946 34.2996 27.2751 34.7469 27.1058ZM37.5184 27.1058C37.9658 27.2751 38.2467 27.6945 38.2625 28.1451L36.5157 27.227V27.1976C36.8135 27.0185 37.1881 26.9809 37.5184 27.1058Z" fill="#00DEA3"/>
<path d="M36.1327 21.2766C30.2198 21.2766 25.4093 26.0871 25.4093 32C25.4093 34.7259 26.4331 37.3238 28.2921 39.3154C30.1418 41.2968 32.6443 42.4968 35.3387 42.6941C35.3483 42.6948 35.3577 42.6952 35.3671 42.6952C35.5659 42.6952 35.734 42.5416 35.7487 42.3401C35.7642 42.1292 35.6057 41.9457 35.3947 41.9302C30.2249 41.5517 26.1752 37.1898 26.1752 32C26.1752 26.5095 30.6422 22.0426 36.1327 22.0426C41.6232 22.0426 46.0901 26.5095 46.0901 32C46.0901 34.3865 45.2328 36.6949 43.6759 38.4999C43.5378 38.6601 43.5557 38.902 43.7158 39.0401C43.876 39.1782 44.1177 39.1604 44.256 39.0002C45.9327 37.0562 46.8561 34.5701 46.8561 32C46.8561 26.0871 42.0456 21.2766 36.1327 21.2766Z" fill="#00DEA3"/>
<path d="M42.6326 39.5433C41.0038 40.9481 39.0113 41.7735 36.8707 41.9302C36.6597 41.9457 36.5013 42.1292 36.5166 42.3402C36.5314 42.5416 36.6994 42.6952 36.8982 42.6952C36.9076 42.6952 36.9171 42.6949 36.9266 42.6942C39.2325 42.5253 41.3786 41.6364 43.1329 40.1234C43.2931 39.9852 43.3109 39.7434 43.1728 39.5832C43.0346 39.423 42.7927 39.4052 42.6326 39.5433Z" fill="#00DEA3"/>
</g>
</g>
<defs>
<filter id="filter0_d_5_209" x="0.13269" y="0" width="72" height="72" filterUnits="userSpaceOnUse" color-interpolation-filters="sRGB">
<feFlood flood-opacity="0" result="BackgroundImageFix"/>
<feColorMatrix in="SourceAlpha" type="matrix" values="0 0 0 0 0 0 0 0 0 0 0 0 0 0 0 0 0 0 127 0" result="hardAlpha"/>
<feOffset dy="4"/>
<feGaussianBlur stdDeviation="8"/>
<feComposite in2="hardAlpha" operator="out"/>
<feColorMatrix type="matrix" values="0 0 0 0 0.501961 0 0 0 0 0.917647 0 0 0 0 1 0 0 0 0.64 0"/>
<feBlend mode="normal" in2="BackgroundImageFix" result="effect1_dropShadow_5_209"/>
<feBlend mode="normal" in="SourceGraphic" in2="effect1_dropShadow_5_209" result="shape"/>
</filter>
<clipPath id="clip0_5_209">
<rect x="24.1327" y="20" width="24" height="24" rx="8" fill="white"/>
</clipPath>
</defs>
</svg>
