<svg width="28" height="28" viewBox="0 0 28 28" fill="none" xmlns="http://www.w3.org/2000/svg">
<path d="M17.9375 8.9375C17.9375 11.1121 16.1746 12.875 14 12.875C11.8254 12.875 10.0625 11.1121 10.0625 8.9375C10.0625 6.76288 11.8254 5 14 5C16.1746 5 17.9375 6.76288 17.9375 8.9375Z" fill="#D31752"/>
<path d="M20.75 19.0625C20.75 21.2371 17.7279 23 14 23C10.2721 23 7.25 21.2371 7.25 19.0625C7.25 16.8879 10.2721 15.125 14 15.125C17.7279 15.125 20.75 16.8879 20.75 19.0625Z" fill="#D31752"/>
<path d="M8.51232 6.125C8.71197 6.125 8.90687 6.14459 9.09507 6.18188C8.63657 6.99627 8.37502 7.93634 8.37502 8.9375C8.37502 9.91428 8.62399 10.8329 9.06193 11.6334C8.88402 11.6666 8.70028 11.6839 8.51232 11.6839C6.9211 11.6839 5.63116 10.4395 5.63116 8.90446C5.63116 7.36941 6.9211 6.125 8.51232 6.125Z" fill="#D31752"/>
<path d="M6.62826 21.8592C5.98935 21.0955 5.5625 20.1582 5.5625 19.0625C5.5625 18.0003 5.96364 17.087 6.57025 16.3363C4.42749 16.5025 2.75 17.6745 2.75 19.0956C2.75 20.5299 4.45696 21.7105 6.62826 21.8592Z" fill="#D31752"/>
<path d="M19.6249 8.9375C19.6249 9.91428 19.3759 10.8329 18.938 11.6334C19.116 11.6666 19.2997 11.6839 19.4877 11.6839C21.0789 11.6839 22.3688 10.4395 22.3688 8.90446C22.3688 7.36941 21.0789 6.125 19.4877 6.125C19.288 6.125 19.0931 6.14459 18.9049 6.18188C19.3633 6.99627 19.6249 7.93634 19.6249 8.9375Z" fill="#D31752"/>
<path d="M21.3717 21.8592C23.543 21.7105 25.2499 20.5299 25.2499 19.0956C25.2499 17.6745 23.5724 16.5025 21.4296 16.3363C22.0362 17.087 22.4374 18.0003 22.4374 19.0625C22.4374 20.1582 22.0106 21.0955 21.3717 21.8592Z" fill="#D31752"/>
</svg>
